<svg xmlns="http://www.w3.org/2000/svg" width="242.54" height="242.614" viewBox="0 0 242.54 242.614">
  <path id="daire-boyuk" d="M91.306,0h1.981l.08,0H94.5l.045,0H94.9l.049,0h.247l.036,0h.035l.04,0,.045,0h.034l.035,0,.035,0,.035,0,.035,0,.036,0,.035,0,.035,0,.034,0L95.7.1l.052,0,.035,0h.07l.035,0h.019l.035,0h.083l.033,0,.032,0,.083,0h.253l.033,0,.032,0,.085,0,.03,0h.048l.035,0,.034,0,.035,0h.068l.032,0h.03l.059,0h.036l.034,0h.208l.032,0L97.379.2h0l.034,0,.034,0,.024,0h.012l.023,0h.011l.034,0,.033,0,.035,0,.024,0h.007l.12.008.031,0,.034,0,.033,0h.013l.022,0h.011l.034,0,.033,0,.034,0,.026,0h0l.16.012h.006l.034,0,.035,0,.026,0h.007l.034,0,.034,0,.033,0,.192.015h0l.029,0h0l.035,0,.027,0h.007l.034,0,.027,0h.006l.028,0h.006l.193.016h0l.031,0h0l.029,0h.006l.028,0h0l.029,0h0l.03,0h0l.3.026h0l.031,0h0l.031,0h0l.031,0h0l.032,0h0l.229.021h0l.029,0h.006L99.9.4h0l.031,0h0l.031,0h0q4.178.393,8.242,1.156l-.92,4.915A87.09,87.09,0,0,0,91.306,5V0Zm33.225,6.233q1.813.709,3.591,1.493h0q.381.168.759.339h0q.379.171.756.346h0a91.033,91.033,0,0,1,8.068,4.24h0l.443.264,0,0,.025.015.007,0,.022.013.007,0,.023.014.008,0,.021.013.009.006.019.012.011.006.019.011.009.005.02.012.01.006.018.011.012.007.016.01.014.009.014.009.014.008.015.009.015.009.013.008.016.01.012.007.018.011.01.006.018.011.011.007.019.012.006,0,.023.014,0,0,.392.24h0q.338.207.674.418L137.042,18.1a86.2,86.2,0,0,0-14.331-7.21Zm28.655,17.933a91.793,91.793,0,0,1,11.363,12.612l-4.008,2.989A87.033,87.033,0,0,0,149.8,27.842l3.39-3.676Zm20.2,27.1,0,.009.006.011.009.019.006.012.009.018.006.013.009.019.005.011.01.021,0,.01.01.021,0,.009.01.021,0,.01.012.025,0,0,.013.027,0,0,.06.124,0,0,.013.026,0,.006.012.024,0,.008.011.023,0,.006.012.024,0,.007.011.024,0,.007.011.023,0,.008.012.024,0,.006.012.024,0,.007.012.025,0,.006.012.025,0,.006.012.026,0,0,.013.028v0c.07.146.138.291.207.437h0l.014.031h0l.014.03h0q1.73,3.684,3.136,7.541h0l.012.033h0l.023.064v0c.063.175.126.349.188.524v0l.011.03v0l.011.031v0l.011.031v0l.011.03v0l.011.031h0l.127.362h0l.011.032h0l.011.032h0l.011.031v0l.01.029,0,0,.01.029v0l.01.03v0l.01.029,0,0,.01.028,0,.005.01.029v0l.011.031h0l.011.033h0l.011.033h0l.09.265h0l.022.065v0l.01.03v0l.01.029,0,.005.01.029v0l.01.029v0l.01.029v0l.01.029v0l.01.03v0l.01.03v0l.011.032h0l.121.364v0l.01.031h0l.01.031v0l.01.03v0l.01.031v0l.01.032h0l.01.032v0c.058.178.116.354.173.532h0q.6,1.881,1.13,3.8l-4.823,1.32A85.9,85.9,0,0,0,168.9,53.466Zm8.924,32.6v.013l0,.028v.008l0,.03v0l0,.034V84l0,.024v.013l0,.02v.015l0,.019V84.1l0,.03v.032l0,.02v.011l0,.021v.007l.006.078v0l0,.025v.006q.183,2.429.239,4.891v.035l0,.109V89.7c0,.023,0,.046,0,.07v.676c0,.006,0,.012,0,.018v.022s0,.009,0,.014v.068c0,.012,0,.02,0,.032s0,0,0,.007v.073c0,.006,0,.015,0,.022s0,.008,0,.012v.032s0,.007,0,.01,0,.017,0,.023V90.8c0,.006,0,.017,0,.023v.038s0,.005,0,.008,0,.021,0,.034,0,.005,0,.008,0,.02,0,.026,0,.008,0,.012,0,.017,0,.023V91s0,.005,0,.008,0,.021,0,.033,0,.006,0,.01,0,.018,0,.025,0,.008,0,.012v.023s0,.007,0,.011v.027s0,0,0,.007,0,.021,0,.033,0,.007,0,.01,0,.017,0,.024,0,.008,0,.012,0,.017,0,.023v.011c0,.012,0,.021,0,.033s0,.025,0,.037v.014c0,.008,0,.016,0,.023s0,.012,0,.018,0,.013,0,.019,0,.012,0,.018,0,.013,0,.019,0,.011,0,.018v.02c0,.006,0,.012,0,.018v.057c0,.006,0,.013,0,.019s0,.012,0,.018,0,.013,0,.02,0,.012,0,.018,0,.013,0,.019,0,.012,0,.018v.02c0,.006,0,.011,0,.017s0,.011,0,.02v.017c0,.009,0,.011,0,.02v.073c0,.006,0,.013,0,.019v.018c0,.006,0,.013,0,.019s0,.013,0,.019,0,.012,0,.018,0,.012,0,.019v.149c0,.007,0,.013,0,.02v.018c0,.007,0,.013,0,.02v.129c0,.007,0,.013,0,.02V93h0v1.5c0,.075-.005.149-.008.224h0v1.234l0,.03v.044l0,.03v.045l0,.03v.006l0,.035v0q-.006.112-.012.223v.006l0,.031v0l0,.032v.009l0,.028v.01l0,.027v.01l0,.027V96.6l0,.027V97.8l0,.024v.008l-.012.168v.007l0,.024v.012l0,.024v.012l0,.023v.014l0,.023v.014l0,.023v.014l0,.024v.013l0,.023v.013l0,.023V98.3l0,.022v.015l0,.023v.013l0,.024v.012l0,.025v.011l0,.025v.011l0,.026v.011l0,.025v.012l0,.025v.011l0,.025v.011l0,.026v.01l0,.026V98.7l0,.026v.01l0,.026v.01l0,.027v.009l0,.027v.01l0,.027v.01l0,.026v.01l0,.027v.008l0,.028v.008l0,.029v.006l0,.03v.005l0,.032h0l0,.035v0l-.006.07h0q-.071.827-.156,1.65l-4.973-.517a87.733,87.733,0,0,0,.466-9.027c0-2.343-.095-4.709-.282-7.032Zm-8.3,32.193L178.8,117.5q-.486,1.624-1.03,3.226h0l-.011.033h0l-.011.031v0l-.01.031v0l-.01.029,0,0-.01.028v0l-.01.028,0,.006-.009.026,0,.008-.009.025,0,.008-.009.026,0,.006-.009.027,0,0-.009.027,0,.006-.009.025,0,.008-.009.027,0,.006-.034.1,0,.009-.008.023,0,.012-.007.021,0,.012-.007.02-.006.016-.006.016-.006.017-.005.015-.006.017-.005.015-.006.018,0,.013-.007.019,0,.014-.007.019,0,.013-.006.018-.005.015-.006.018,0,.013-.007.02,0,.011-.008.022,0,.009-.008.022,0,.01-.008.023,0,.006-.009.026,0,.006-.009.027h0l-.1.282h0a90.779,90.779,0,0,1-4.863,11.167l-4.44-2.3A85.942,85.942,0,0,0,174.01,116.066Zm-14.685,28.372,3.938,3.081a91.848,91.848,0,0,1-11.651,12.346l-3.3-3.753A87.055,87.055,0,0,0,159.325,144.438Zm-23.993,21.118,2.554,4.3a90.873,90.873,0,0,1-15.338,7.274l-1.711-4.7A86.117,86.117,0,0,0,135.332,165.556Zm-30.013,10.926.805,4.935A91.611,91.611,0,0,1,95.8,182.5h-.032l-.113.005h-.032l-.085,0h-.065l-.109,0H95.3l-.052,0h-.094l-.059,0h-.094l-.053,0h-.064l-.082,0H90.774q-.8,0-1.588-.023l.114-5c.665.015,1.34.023,2.006.023A87.264,87.264,0,0,0,105.318,176.481Zm-47.273-5.51a85.853,85.853,0,0,0,15.312,4.773l-1.034,4.892q-1.881-.4-3.732-.872h0l-.033-.008h0l-.031-.008h0l-.029-.007h-.006l-.029-.007h0l-.031-.008h0l-.033-.008h0l-.033-.008h0l-.136-.035h0l-.032-.008h-.005l-.028-.007-.008,0-.025-.006-.011,0-.022-.006-.014,0-.02-.005-.014,0-.019,0-.016,0-.016,0-.017,0-.015,0-.019-.005-.014,0-.019-.005-.015,0-.019-.005-.013,0-.02-.005-.011,0-.023-.006-.007,0-.025-.007-.007,0a90.613,90.613,0,0,1-11.642-3.963ZM31.358,153.395a86.932,86.932,0,0,0,12.527,10.035L41.134,167.6q-1.7-1.123-3.352-2.317h0q-.278-.2-.554-.4h0l-.055-.04,0,0-.025-.018,0,0-.023-.017-.007-.005-.021-.016-.006,0-.021-.016-.007-.005-.02-.015-.007-.005-.02-.015L37,164.716l-.021-.015-.006,0-.02-.015-.008-.006-.02-.015-.008-.006-.019-.014-.008-.006-.02-.015-.007-.005-.019-.014-.008-.006-.02-.015-.007-.005-.02-.015-.007,0-.021-.016-.006,0-.021-.015-.007,0-.022-.016-.005,0-.02-.015-.008-.006-.021-.016-.006,0-.023-.017,0,0-.137-.1h0l-.026-.019,0,0-.023-.017,0,0-.022-.017,0,0-.022-.017,0,0-.022-.016-.007-.006-.02-.015-.008-.006-.019-.014-.009-.007-.017-.013-.01-.008-.016-.012-.011-.008-.016-.012-.01-.007-.017-.013-.009-.007-.018-.014-.008-.006-.019-.014-.009-.007-.018-.014-.008-.006-.019-.014-.009-.006L36.051,164,36.043,164l-.018-.014-.01-.007L36,163.961l-.008-.006-.019-.015-.008-.006-.02-.015-.006,0-.02-.016-.008-.006-.02-.015-.007-.005-.02-.015-.007-.006-.021-.016-.006,0-.02-.015-.007-.006-.162-.124,0,0-.025-.019,0,0-.023-.018-.009-.007-.018-.014-.007-.006-.019-.015-.007-.005-.02-.016-.006,0-.019-.015-.01-.008-.017-.013-.01-.008-.017-.013-.011-.008L35.4,163.5l-.012-.009-.014-.011-.013-.01-.015-.012-.011-.008-.016-.012-.011-.008-.017-.013-.01-.008-.016-.012-.012-.009-.015-.012-.011-.009-.015-.012-.012-.009-.015-.012-.011-.009-.014-.011-.012-.01-.015-.012-.011-.009-.016-.013-.01-.008-.018-.014-.009-.007-.016-.013-.011-.008-.017-.013-.009-.007L35,163.186l-.009-.007-.018-.014-.008-.007-.015-.012-.012-.01-.014-.011-.012-.01-.08-.063,0,0-.022-.017-.006,0-.021-.016-.008-.006-.018-.014-.01-.008-.016-.013-.011-.009-.016-.012-.009-.007-.018-.014-.009-.007-.018-.014-.009-.007-.017-.013-.011-.009-.015-.012-.011-.009-.016-.012-.011-.009-.015-.012-.011-.009-.015-.012-.012-.01-.015-.012-.01-.008-.017-.013-.01-.008-.017-.013-.009-.008-.017-.013-.011-.009-.017-.013-.009-.007-.018-.015-.009-.007-.018-.014-.009-.007-.017-.014-.01-.008-.018-.015-.007-.006-.02-.016-.007-.006-.019-.015-.007-.006-.019-.015-.008-.006-.021-.017-.005,0-.02-.016-.007-.005-.021-.017,0,0-.02-.016-.007-.006-.105-.085-.006,0-.021-.017,0,0-.021-.017-.009-.007-.018-.015-.008-.006-.018-.015-.009-.007-.018-.014-.008-.007-.018-.014-.009-.008-.017-.014-.01-.008-.016-.013-.01-.008-.016-.013-.01-.008-.016-.013-.01-.008-.016-.013-.01-.008-.015-.012-.011-.009-.015-.013-.01-.009-.015-.013-.011-.009-.016-.013-.01-.008-.016-.013-.01-.008-.017-.014L33.515,162l-.017-.014-.01-.008-.017-.014-.009-.007-.017-.014-.009-.007-.018-.015-.009-.007-.017-.014-.009-.008-.016-.014-.01-.008-.016-.013-.01-.008-.016-.013-.01-.009-.017-.014-.009-.008-.018-.015-.008-.007-.016-.013-.011-.009-.025-.021-.007-.006-.019-.015-.012-.01-.014-.012-.011-.009-.015-.013-.011-.009-.015-.013-.01-.009-.016-.013-.01-.008-.016-.013-.01-.008-.017-.014-.01-.008-.016-.013-.01-.008-.016-.014-.009-.008-.017-.014-.009-.008-.017-.014-.01-.009-.015-.013-.011-.009-.016-.013-.01-.008-.016-.013-.01-.008-.016-.013-.011-.009-.015-.012-.011-.009-.015-.013-.011-.009-.015-.013-.01-.009-.016-.013-.01-.008-.016-.014-.009-.008-.018-.015-.008-.007-.019-.016-.006-.005-.019-.016-.008-.007-.019-.016-.007-.005-.02-.017-.006,0-.022-.019,0,0-.022-.018,0,0-.024-.02,0,0-.078-.066,0,0-.05-.042,0,0-.023-.019,0,0-.022-.018-.006-.005-.02-.017-.005,0-.02-.017-.006,0-.021-.017-.006,0-.019-.016-.008-.007-.018-.015-.008-.006-.018-.015-.009-.007-.017-.015-.009-.007-.017-.014-.01-.008-.016-.014-.009-.008-.017-.014-.009-.007L32,160.731l-.009-.008-.016-.013-.011-.009-.015-.013-.01-.008-.016-.014-.008-.007-.018-.015-.008-.007-.017-.015-.008-.007-.018-.016-.007-.006-.019-.017-.006-.005-.021-.018-.005,0-.019-.016-.008-.007-.018-.016-.007-.006-.02-.017-.005,0-.022-.019,0,0-.021-.018-.005,0-.023-.02,0,0-.052-.045,0,0-.023-.02-.01-.008-.016-.014-.005,0-.02-.018-.005,0-.02-.018-.006,0-.02-.017-.006-.005-.02-.017,0,0-.021-.018-.005,0-.02-.017-.007-.006-.018-.015-.009-.008-.017-.015-.007-.006-.019-.016-.008-.007-.018-.015-.008-.007-.017-.015-.009-.008-.017-.015-.008-.007-.018-.016-.008-.007-.017-.015-.008-.007-.016-.014-.01-.009-.016-.014-.008-.007-.018-.016-.007-.006-.019-.017-.006-.006-.019-.017-.007-.006-.02-.018,0,0-.02-.018-.006-.005-.019-.017-.006-.005-.018-.016-.008-.007-.021-.018,0,0-.022-.019,0,0-.127-.113,0,0-.021-.019-.008-.007L30.7,159.6l0,0-.021-.019-.007-.006-.019-.017-.007-.006-.018-.016-.008-.007-.018-.016-.007-.006-.018-.016-.008-.008-.017-.015-.009-.008-.015-.014-.011-.01-.015-.013-.01-.009-.015-.013-.01-.009-.016-.014-.009-.008-.015-.014-.01-.009-.015-.014-.01-.009-.014-.012-.012-.011-.014-.012-.011-.01-.014-.013-.011-.01-.015-.013-.01-.009-.015-.013-.01-.009-.015-.013-.01-.009-.015-.013-.01-.009-.016-.014-.01-.009-.014-.013-.011-.01-.014-.012-.011-.01-.012-.011-.013-.012-.012-.01-.013-.012-.012-.011-.013-.012-.013-.012-.012-.011L30.03,159l-.061-.055,0,0-.022-.02,0,0-.02-.018-.005,0-.019-.017-.006-.006-.016-.014-.01-.009-.014-.013-.011-.01-.013-.012-.012-.011-.013-.012-.011-.01-.013-.012-.012-.011-.014-.012-.011-.01-.014-.012-.011-.01L29.7,158.7l-.01-.009-.014-.013-.011-.01-.014-.013-.011-.01-.014-.012-.011-.01-.014-.013-.01-.009-.014-.013-.011-.01-.015-.013-.01-.009-.015-.014-.009-.009-.016-.015-.008-.008-.016-.014-.01-.01-.014-.013-.011-.01-.013-.012-.012-.011-.014-.013-.01-.009-.015-.014-.009-.009-.016-.014-.008-.007-.016-.015-.007-.006-.185-.171,0,0-.045-.042,0,0-.019-.018-.005-.005-.017-.016-.008-.008-.017-.016-.007-.006L29,158.047l-.008-.007-.016-.015-.008-.007L28.947,158l-.008-.008-.018-.016-.006-.005-.018-.017-.007-.006-.018-.017-.006-.006-.018-.017-.007-.007-.018-.017-.006-.005-.019-.018-.006-.005-.019-.017-.005-.005-.019-.018-.005-.005-.019-.018,0,0-.021-.019,0,0-.021-.019,0,0-.019-.018-.007-.006-.018-.017,0,0-.454-.432h0l-.095-.091h0l-.19-.183Zm-18.5-26.058a86.423,86.423,0,0,0,8.036,13.888l-4.076,2.9q-1.359-1.914-2.622-3.9h0l-.211-.334v0l-.015-.024,0,0-.014-.023,0-.006-.013-.021,0-.007-.012-.019-.007-.01-.011-.017-.007-.012-.01-.016-.008-.013-.01-.016-.008-.012-.01-.016-.008-.012-.011-.017-.007-.011-.011-.017L13.8,139.6l-.012-.019-.006-.01-.011-.018-.007-.011-.011-.017-.007-.012-.01-.016-.008-.013-.01-.016-.008-.013-.009-.015-.009-.015-.009-.014-.009-.015-.008-.014-.009-.014-.009-.015-.009-.015-.008-.012-.012-.02-.006-.009-.033-.054,0,0-.018-.029h0l-.017-.027,0-.008-.013-.022,0-.006-.014-.022-.007-.011-.011-.018-.005-.009-.012-.02-.005-.008-.013-.021,0-.007-.013-.021L13.43,139l-.012-.02-.005-.008-.013-.021-.005-.009-.013-.021,0-.008-.012-.02-.006-.01-.012-.02-.005-.008-.013-.021,0-.007-.014-.023,0-.006-.013-.022,0-.008-.013-.022,0-.007-.014-.023,0-.006-.014-.024,0-.006-.014-.022,0-.007-.015-.025,0,0-.213-.353h0l-.035-.059h0l-.016-.027,0,0-.016-.027v0l-.017-.028h0l-.017-.028v0l-.017-.028v0L12.828,138h0l-.035-.059h0q-.916-1.539-1.773-3.115h0q-.181-.334-.36-.669h0l-.016-.03h0l-.015-.029v0l-.015-.029h0l-.015-.029v0l-.015-.029h0l-.016-.029h0l-.032-.06h0l-.161-.305v0l-.015-.028,0,0-.014-.027,0,0-.014-.026,0,0-.014-.026,0-.006-.013-.025,0-.006-.013-.024,0-.007-.012-.023,0-.007-.012-.023,0-.009-.012-.022,0-.007-.012-.023,0-.007-.013-.024,0-.005-.013-.024,0-.007-.012-.024,0-.007-.012-.024,0-.007-.012-.024,0-.007-.011-.022,0-.009L10.1,133.1l0-.008-.011-.021-.005-.01-.012-.024,0-.005L10.056,133l0-.008-.013-.026,0,0-.011-.022,0-.009-.031-.06-.007-.014-.009-.017-.006-.011-.01-.019-.006-.012-.01-.019-.006-.012-.009-.017-.007-.015-.008-.016-.007-.014-.008-.016-.007-.014-.008-.016-.008-.016-.007-.014-.008-.017-.007-.014-.008-.015-.008-.015-.007-.015-.008-.016-.007-.014-.007-.015L9.8,132.5l-.007-.013-.009-.017-.006-.012-.009-.018-.006-.013L9.75,132.4l-.006-.011-.01-.019-.006-.011-.009-.019-.006-.012-.009-.018L9.7,132.3l-.009-.017-.005-.011-.01-.02,0-.01-.01-.02,0-.009-.011-.021,0-.005-.116-.233h0l-.014-.028v0L9.5,131.9v0l-.013-.027,0,0-.012-.025,0-.006-.012-.025,0-.005-.012-.025,0-.005-.013-.026,0,0-.013-.026,0,0-.013-.026v0l-.014-.027v0l-.014-.028h0l-.014-.028,0,0-.013-.027h0q-.522-1.061-1.018-2.138Zm-7.712-31a86.465,86.465,0,0,0,2.4,15.864l-4.852,1.206c-.043-.171-.085-.345-.127-.517v0l-.008-.031v0l-.007-.029,0-.007-.006-.026,0-.009-.006-.025,0-.009-.006-.024,0-.009-.006-.026,0-.008-.007-.03v0l-.007-.03v0l-.016-.067,0-.01-.006-.023,0-.015,0-.017,0-.017,0-.017,0-.016,0-.017,0-.016,0-.018,0-.016,0-.015,0-.018,0-.015,0-.019,0-.013,0-.02,0-.012-.005-.022v-.006l-.036-.153v0l-.007-.029v0l-.006-.027v-.006l-.006-.027v0l-.006-.028v0l-.007-.029v0l-.007-.028v0A91.266,91.266,0,0,1,.152,96.625Zm-.7-33.247L9.2,64.635A86.022,86.022,0,0,0,5.7,80.288l-4.96-.632v0l0-.025v-.01l0-.024v-.011l0-.024v-.01l0-.024v-.01l0-.024v-.01l0-.025V79.45l0-.027h0l.017-.129v0l0-.026v-.009l0-.023,0-.012,0-.021,0-.014,0-.02,0-.014,0-.019,0-.015,0-.021,0-.013,0-.021,0-.014,0-.021,0-.013,0-.021,0-.014,0-.021,0-.013,0-.021,0-.014,0-.02,0-.013.01-.074,0-.015,0-.016,0-.018,0-.017,0-.018,0-.018,0-.016,0-.018,0-.018,0-.016,0-.019,0-.016,0-.019,0-.016,0-.018,0-.017,0-.018,0-.017,0-.018,0-.016,0-.02,0-.015,0-.019,0-.015,0-.023,0-.012.01-.069v-.007l0-.027,0-.012,0-.023,0-.011,0-.023,0-.013,0-.021,0-.014,0-.02,0-.014,0-.021,0-.013,0-.022,0-.014,0-.02,0-.015,0-.02,0-.016,0-.019,0-.015,0-.021,0-.013,0-.024v-.01l0-.032v0l.01-.07v0l0-.031v-.006l0-.028v-.009l0-.026v-.009l0-.025,0-.01,0-.025,0-.01,0-.024,0-.011,0-.025V77.5l0-.025v-.01l0-.025v-.009l0-.025V77.4l0-.028v-.006l.022-.14h0l.005-.034v0l0-.03v-.008l0-.026,0-.01,0-.025,0-.01,0-.025v-.009l0-.025v-.009l0-.026v-.009l0-.026v-.008l0-.028V76.9l0-.03v0l.005-.032v0l.028-.176h0l.005-.034v0l.005-.032v0l.005-.031v-.006l0-.03v0l.005-.031v0l.005-.032v0l.005-.031v0l.005-.031v0l.005-.033v0l.035-.211v0l.005-.032v0l.005-.031v0l.005-.031v0l.005-.03v-.005l.005-.031v0l.006-.033v0l.006-.034h0l.048-.281h0l.006-.033v0l.005-.032v0l.006-.032v0l.006-.032v0l.006-.032v0l.006-.032v0l.006-.034h0l.05-.28v0l.006-.032v0l.005-.03V75l.005-.03v0l.006-.03v0L1.47,74.9v0l.006-.031v0l.006-.032v0l.045-.244v0l.006-.031v0l.006-.031v0l.006-.03v0l.005-.029v-.006l.006-.029v0l.006-.031v0l.006-.032v0L1.58,74.3h0l.04-.21h0l.006-.034v0l.006-.03v-.008l.005-.027v-.007l.005-.028v-.007l.005-.028v-.007l.005-.027v-.008l.006-.029v0l.006-.031v0l.006-.032v0l.007-.034h0l.027-.139h0l.007-.034v0l.006-.031v-.006l.006-.028v-.007l.005-.027,0-.008.005-.027v-.007l.006-.028V73.39l.006-.029v0l.006-.03v0l.006-.032v0l.007-.033h0l.035-.174v0l.006-.031v-.007l.005-.027,0-.009,0-.024,0-.011,0-.023,0-.012,0-.022,0-.013,0-.022,0-.011,0-.023,0-.011.005-.025,0-.008.005-.025,0-.009.005-.027V72.73L1.9,72.7v0l.014-.069v0l.007-.033v0l.007-.032v-.006l.006-.029,0-.007.005-.026,0-.01.005-.024,0-.01.005-.024,0-.011,0-.024,0-.011,0-.022,0-.012.005-.024,0-.009.006-.027v-.006l.006-.029v0L2,72.213v0l.022-.1h0l.007-.032,0-.01.005-.025,0-.008L2.044,72l0-.011,0-.023,0-.012,0-.022,0-.013,0-.021,0-.012,0-.022,0-.013,0-.022,0-.012,0-.021,0-.014,0-.022,0-.01.005-.024,0-.01.006-.029v0l.022-.1,0-.009.005-.025,0-.009.005-.024,0-.011.005-.023,0-.01.005-.023,0-.012.005-.023,0-.011,0-.022,0-.012,0-.022,0-.011,0-.022,0-.012,0-.022,0-.012,0-.022,0-.012.005-.024,0-.01.006-.029v0l.015-.068V71.1l.006-.028,0-.009.005-.023,0-.014,0-.02,0-.013,0-.02,0-.015,0-.019,0-.014,0-.02,0-.015,0-.018,0-.015,0-.018,0-.016,0-.018,0-.015,0-.018,0-.016,0-.018,0-.015,0-.017,0-.018,0-.011,0-.022,0-.013.008-.036,0-.017,0-.016,0-.017,0-.017,0-.016,0-.018,0-.016,0-.016,0-.018,0-.016,0-.017,0-.017,0-.016,0-.017,0-.016,0-.017,0-.017,0-.017,0-.016,0-.017,0-.017,0-.016,0-.018,0-.015,0-.018,0-.016,0-.01.018-.075,0-.013,0-.018,0-.015,0-.018L2.5,70l0-.019,0-.015,0-.018,0-.015,0-.019,0-.014,0-.02,0-.013,0-.021,0-.012,0-.02,0-.014,0-.02,0-.013,0-.02,0-.013.005-.021,0-.009.006-.023,0-.01.028-.116v0l.007-.027v-.006l.006-.024,0-.01.006-.023,0-.01.005-.021,0-.012.005-.021,0-.012.005-.021,0-.012.005-.022,0-.01.006-.022,0-.011.005-.022,0-.01.005-.022,0-.011.006-.022,0-.008.006-.025v0l.031-.124v0l.007-.029v0l.006-.025,0-.008.006-.024,0-.009.006-.023,0-.011.006-.023,0-.009.006-.023,0-.01.006-.023,0-.009.006-.023,0-.008.007-.026v0l.007-.029v0l.064-.251v0l.007-.027V68.43L2.9,68.4l0-.009.006-.024,0-.007.007-.026,0-.007.007-.026,0-.006.007-.026,0-.007.007-.027v0L3,68.017H3l.008-.031h0l.008-.029v0l.007-.028v0l.007-.027,0-.006.007-.026,0-.007.007-.025,0-.007.007-.026v-.005l.007-.027,0-.006.007-.027v0l.059-.219v0l.008-.029v0l.007-.027,0-.007.007-.027v0l.007-.027,0-.007.007-.026v-.006l.007-.026,0-.007.007-.026,0-.006.007-.027,0-.006.007-.027v0l.052-.189h0L3.271,67V67l.007-.026,0-.006.007-.025,0-.007L3.3,66.9l0-.006.007-.025,0-.007.007-.026v0l.007-.027,0-.006.007-.027v0l.008-.029v0l.07-.249v0l.008-.029v0l.008-.028v-.005l.008-.027v0l.008-.027,0-.006.008-.028v0l.009-.03h0l.081-.284h0l.008-.028V65.98l.008-.027v-.005l.008-.026,0-.006.008-.027,0-.005.007-.026,0-.007.008-.026v0l.008-.028v0l.082-.28v0l.008-.026,0-.007.007-.025,0-.007.007-.024,0-.008.007-.024,0-.008.007-.024,0-.008.007-.024,0-.007.007-.025,0-.006.008-.027v0l.055-.184v0l.007-.025,0-.008.007-.024,0-.008.007-.024,0-.008.007-.024,0-.008.007-.023,0-.009.007-.024,0-.008.007-.023,0-.009.007-.024,0-.007.008-.025,0-.007.008-.025v0l.046-.152v0l.008-.027v0l.008-.025,0-.007L4,64.505,4,64.5l.007-.024,0-.009.007-.023,0-.008.007-.024,0-.008.007-.023,0-.009.007-.023,0-.01.007-.022,0-.009.007-.023,0-.009.007-.023,0-.007.008-.025v0l.036-.115,0-.009.007-.021,0-.011.006-.02,0-.012.006-.02,0-.013.006-.018,0-.015.006-.018,0-.015.005-.017,0-.014.006-.018,0-.015.005-.016.005-.017,0-.015.005-.017,0-.015.005-.017.005-.016.006-.019,0-.012.007-.022,0-.011.01-.032,0-.008.007-.024,0-.013.007-.021,0-.011.007-.021,0-.013.006-.02,0-.012.006-.02,0-.013.006-.02,0-.012.006-.02,0-.013.007-.021,0-.011.007-.021,0-.012.007-.023,0-.009.008-.024,0-.009.009-.027,0,0,.043-.133h0ZM20.675,33.44l3.866,3.171a86.692,86.692,0,0,0-8.984,13.3l-4.385-2.4q1.067-1.948,2.226-3.839h0l.018-.029h0l.017-.028,0,0,.017-.027v0l.016-.026,0,0,.015-.025,0,0,.015-.024,0-.006.015-.024,0,0,.015-.025,0,0,.015-.025,0,0,.016-.025,0,0,.016-.026,0,0,.016-.026,0,0,.016-.026,0,0,.016-.025,0,0,.017-.027h0l.017-.028h0l.109-.175v0l.017-.027,0,0,.016-.026,0,0,.016-.025,0,0,.016-.026,0,0,.015-.024,0-.006.014-.023,0-.007.013-.021.005-.008.013-.02.007-.01.012-.018.006-.01.012-.019.007-.011.012-.019L14,42.7l.012-.02.006-.01.012-.018.006-.01.012-.018.007-.011.011-.017.007-.011.011-.017.008-.013.01-.016.008-.012.011-.017.007-.012.011-.018.007-.01.011-.017.008-.012.01-.016.007-.012.01-.016.008-.013.009-.014.009-.014.008-.013.01-.016.006-.009.012-.018.007-.011.024-.038,0-.008.031-.049.005-.008.013-.021,0-.007.012-.019.007-.01.013-.02,0-.008.012-.019.007-.01.011-.016.008-.012.01-.016.009-.013.01-.016.008-.012.011-.017.008-.012.011-.017.007-.011.011-.018.007-.011.012-.018.006-.009.012-.019.006-.01.012-.018.006-.009.012-.018.007-.011.012-.019,0-.008.013-.021.005-.008.013-.02.005-.008.013-.02.005-.008.013-.021,0-.005.015-.023,0,0L14.7,41.6l0-.005.014-.022,0-.007.014-.022v0l.2-.3h0l.018-.027h0l.018-.027h0L15,41.153v0l.016-.024,0,0,.016-.024,0,0,.016-.024,0,0,.016-.025,0,0,.016-.024,0,0,.016-.024,0,0,.017-.025v0l.017-.026h0l.018-.026v0A91.619,91.619,0,0,1,20.675,33.44ZM46.561,11.7l2.454,4.356a86.729,86.729,0,0,0-13.191,9.14l-3.216-3.828A91.52,91.52,0,0,1,46.561,11.7ZM78.585.879l.69,4.952A85.979,85.979,0,0,0,63.665,9.52l-1.6-4.737.021-.007h0l.33-.111h0l.032-.011h0l.033-.011h0l.033-.011h0a90.6,90.6,0,0,1,9.065-2.5h0l.034-.007h0l.034-.007h0l.034-.007h0l.034-.007h0L72,2.045h0l.033-.007h0l.03-.006.008,0,.027-.006h.006l.027-.006.008,0,.025-.005.009,0L72.2,2l.009,0,.026-.005.008,0,.026-.006.009,0,.025-.005.009,0,.023,0,.011,0,.028-.006h.006l.068-.014.01,0,.023,0,.014,0,.021,0,.012,0,.021,0,.015,0,.018,0,.017,0,.016,0,.019,0,.015,0,.019,0,.014,0,.02,0,.013,0,.021,0,.012,0,.021,0,.012,0,.022,0,.01,0,.024,0h.006l.222-.045h0l.029-.006h0l.028-.006h.005l.028-.006h0L73.2,1.8h0l.028-.006h0l.028-.006h0l.029-.006h0Q75.917,1.252,78.585.879Z" transform="translate(-0.138 77.175) rotate(-25)" fill="#fafafa"/>
</svg>
