<svg xmlns="http://www.w3.org/2000/svg" width="196.993" height="197.057" viewBox="0 0 196.993 197.057">
  <path id="daire-kicik" d="M70.806,0h3.415l.039,0H74.3l.032,0h.031l.031,0,.064,0,.032,0,.032,0,.034,0,.037,0h0l.038,0,.035,0H74.7l.032,0h.031l.037,0,.036,0h.033l.031,0,.032,0,.063,0H75l.033,0h.032l.032,0,.031,0,.039,0h.065l.032,0,.027,0h0l.032,0h0l.036,0H75.4l.032,0,.025,0h.006l.064,0,.032,0,.032,0,.032,0,.036,0,.037,0,.031,0,.032,0h.009l.032,0,.028,0h0l.033,0h0l.037,0,.023,0h.011l.022,0h.01l.024,0H76l.063,0h.008l.023,0h.01l.021,0h.01l.031,0,.028,0h0l.037,0,.035,0,.023,0H76.3l.032,0,.027,0h0l.032,0h0l.037,0,.022,0h.01l.022,0h.01l.031,0,.063.005.031,0,.032,0h.01l.031,0,.028,0h0l.038,0,.034,0,.023,0h.009l.022,0h.01l.031,0,.032,0h0l.029,0h.01l.022,0H77l.031,0,.025,0h.007l.063.006.032,0,.031,0h.01l.032,0,.027,0h0l.038,0,.024,0h.01l.022,0h.009L77.4.3l.031,0,.032,0h0l.038,0,.023,0h.01l.031,0,.025,0h.005l.064.006.031,0,.032,0,.032,0,.036,0h0l.032,0h0l.037,0,.023,0H77.9l.031,0,.027,0h0l.064.006.031,0,.032,0,.034,0h.005l.064.007h.005l.034,0,.032,0,.032,0,.032,0,.031,0,.031,0,.031,0h.01l.031,0,.027,0h0l.064.007.031,0h.01l.022,0h.01l.031,0,.063.007.031,0,.031,0h.01l.031,0,.031,0,.031,0h0l.027,0,.032,0h.01l.021,0h.01l.031,0,.062.007.031,0h.011l.03,0,.032,0L79.244.5h.01l.022,0h.01l.032,0,.021,0h.01l.031,0,.031,0,.03,0h.011l.031,0,.02,0h.011l.022,0h.009l.031,0h0l.028,0,.03,0,.032,0,.032,0h.01l.03,0h0l.031,0,.031,0h.01l.022,0h.01l.021,0h.01l.031,0,.031,0h.005l.025,0h.01l.021,0h.011l.02,0h.011l.031,0,.062.008.03,0,.031,0H80.2l.031,0L80.3.631h.009l.022,0,.011,0,.031,0,.019,0,.012,0,.03,0,.03,0h.008l.023,0H80.5l.032,0,.031,0,.02,0h.01l.03,0h0l.027,0h.011l.031,0,.02,0h.01l.021,0h.01l.023,0h.008l.029,0,.03,0,.03,0,.031,0,.031,0,.012,0,.029,0,.03,0,.03,0,.03,0,.031,0,.013,0,.024,0,.013,0,.022,0,.03,0,.031,0,.031,0,.033,0,.011,0,.029,0,.031,0,.03,0,.031,0,.03,0,.015,0,.028,0,.03,0,.031,0,.03,0,.03,0,.032,0,.024,0,.017,0,.016,0,.03,0,.03,0,.015,0,.015,0,.015,0,.031,0,.011,0,.018,0,.012,0,.017,0,.03,0,.013,0,.017,0,.012,0,.062.01.012,0,.017,0,.03,0,.012,0,.017,0,.012,0,.018,0h.007l.04.006h.009l.018,0,.012,0,.018,0,.012,0,.018,0,.012,0,.018,0,.01,0L82.4.945l.011,0,.018,0,.011,0,.018,0,.012,0,.018,0H82.5l.07.012h.007l.02,0,.009,0,.02,0,.009,0,.02,0h.008l.021,0h0L82.739,1h0l.022,0h.007l.021,0H82.8l.02,0h.008l.021,0h.006l.072.012h.006l.022,0h.008l.021,0h.007l.022,0h0l.1.018h.006l.022,0h.006l.023,0h0l.1.018h0l.024,0h.005l.022,0h.007l.1.019h0l.025,0h0l.025,0h0l.16.029h0l.026,0h0l.135.025h0l.162.03h0q1.843.347,3.653.789L86.461,6.872A66.122,66.122,0,0,0,70.806,5V0Zm32.711,7.992a70.878,70.878,0,0,1,10.931,7.052h0l.1.082h0l.1.081,0,0,.1.08,0,0,.024.019h0l.051.041h0l.024.019,0,0,.022.018,0,0,.051.041h0l.023.018.005,0,.02.016,0,0,.05.04,0,0,.02.016.007.006.018.014.006,0,.022.017,0,0,.024.02,0,0,.021.017.006,0,.019.015.006,0,.021.017,0,0,.024.02,0,0,.019.015.008.006.016.013.008.006.018.015.005,0,.024.019.005,0,.018.014.01.008.014.012.01.008.015.012.009.007.022.018.011.009.013.01.012.01.012.01.011.009.014.011.01.008.021.018.011.009.012.01.012.01.011.009.012.01.01.009.013.01.009.007.024.02.01.008.013.011.01.008.013.01.01.009.013.011.007.006.029.024.006.005.015.012.008.007.014.012.008.007.015.012,0,0,.037.03h0l.018.015,0,0,.017.014,0,0,.076.063.005,0,.017.014,0,0,.079.066h0l.02.016h0q.694.579,1.373,1.175l-3.3,3.757a66.016,66.016,0,0,0-13-8.914ZM128.826,30.21l.273.392h0l.075.109h0l.074.108,0,0,.014.02v0l.058.085,0,0,.013.019,0,0,.056.082,0,.005.013.019,0,0,.057.084,0,0,.012.018,0,.006.012.018,0,0,.039.057.005.007.011.017,0,.007.012.017,0,.006.038.057,0,.007.011.016.006.009.011.016,0,.006.039.057,0,.006.012.017,0,.006.012.018,0,.006.04.06,0,0,.012.018,0,.007.011.017,0,.007.012.017,0,0,.026.04h0l.012.018,0,.006.011.017,0,.007.011.017,0,0,.038.058,0,.007.011.017,0,.007.011.017,0,0,.039.059,0,.006.012.018,0,.007.011.017,0,.006.037.057,0,.007.011.017.005.008.01.016.006.009.036.055,0,.007.01.016.006.01.009.014.007.01.01.015.006.008.018.027.007.011.009.014.007.01.01.015.006.01.01.015.006.009.022.035,0,0,.011.016.006.009.01.015.007.01.009.014.008.012.016.024.007.012.009.014.007.011.009.013.008.012.009.014.007.012.008.013.015.023.008.013.008.013.008.013.008.012.008.013.008.013.008.012.011.018.012.019.007.011.009.014.007.011.009.014.007.011.009.014.006.01.019.029.006.009.009.014.007.011.009.014.008.012.008.013.007.011.016.026.007.011.008.013.008.013.008.013.008.012.008.013.007.011.017.027.007.01.009.014.007.011.009.015.007.01.009.015.006.01.018.029.005.009.009.015.007.011.009.014.007.011.009.014.007.01.021.033,0,0,.008.014.007.012.008.013.008.013.008.013.007.012.009.014.006.01.017.027.007.011.009.014.007.011L131,33.5l.007.011.009.015.008.013.014.023.008.012.009.014.007.011.009.015.006.01.009.015.007.011.016.026.007.011.009.014.007.011.008.013.007.012.009.015.005.009.02.032,0,.006.009.015.007.011.009.015.006.01.009.015.006.01.017.028.006.01.009.015.006.011.009.015.006.011.009.015.007.012.008.013.014.024.007.012.009.014.007.012.008.014.007.012.009.015.007.011.013.021.009.015.008.014.008.013.007.012.008.014.007.011.008.014.008.014.012.021.009.015.007.012.008.013.008.013.007.012.008.013.008.014.012.02.009.015.008.013.007.012.009.014.007.012.008.013.008.014.015.024.007.011.009.015.006.011.009.015.007.012.008.014.007.011.02.033,0,0,.009.015.006.011.009.015.006.01.009.015.006.011.009.015.014.023.008.014.007.011.009.015.007.011.008.014.007.013.008.013.01.017.012.021.007.011.009.015.007.011.008.014.007.012.008.014.007.012.016.027.006.01.009.015.007.012.008.014.007.011.009.015.006.01.018.031,0,.007.01.016.005.009.009.016.006.01.009.016.005.009.032.055.005.009.009.016.005.009.009.016,0,.008.033.056.005.009.009.015.006.011.009.015.005.009.032.056.005.009.009.016.005.009.009.016.005.009.01.017v0l.022.038,0,.007.009.016.006.01.009.016.006.01.009.016,0,.007.02.034,0,.007.009.016.005.009.009.015.006.011.009.016,0,.006.022.038,0,0,.009.016.006.01.009.016,0,.009.01.017,0,.008.019.034,0,.006.01.017,0,.008.01.017,0,.008.01.018,0,.006.034.061,0,.006.01.018,0,.008.01.017,0,.008.034.061,0,0,.01.018,0,.008.01.017,0,.007.033.059,0,.008.01.017,0,.008.01.018,0,.007.036.065h0l.01.019,0,.007.01.018,0,.006.01.019,0,0,.035.062,0,.006.01.018,0,.008.01.018,0,.005.033.06,0,.009.01.018,0,.007.01.019,0,.006.034.062,0,.005.01.018,0,.008.01.018,0,.006.034.063,0,0,.011.019,0,.006.01.019,0,.006.035.064,0,0,.01.018,0,.008.01.018,0,.006.011.019h0l.036.067,0,0,.011.02,0,0,.048.089,0,0,.011.021,0,0,.012.022h0l.049.092,0,0,.012.022h0l.05.093v0l.012.022v0l.049.092v0l.012.022v0l.049.092v0l.011.021,0,0,.048.091h0l.012.023v0l.061.117v0l.061.117v0l.012.022h0l.048.093v0l.122.236v0l.011.022v0l.06.117v0a70.378,70.378,0,0,1,2.911,6.5l-4.66,1.811a65.7,65.7,0,0,0-7.434-13.895l4.094-2.87ZM141.019,61.6q.119.918.215,1.844h0l.011.106h0l0,.033v0l0,.033h0l0,.035h0l0,.031v.007l0,.026v.009l0,.031v0l0,.033V63.8l0,.024v.012l0,.021v.012l0,.031v.009l0,.022v.014l0,.018v.014l0,.019v.013l0,.03v.015l0,.016,0,.017v.015l0,.016v.015l0,.032v.014l0,.018v.014l0,.018v.014l.006.068v.009l0,.021v.01l0,.022v0l.007.075v.009l0,.022v.008l.007.076v0l0,.024V64.6l0,.024v0l.007.081h0l0,.027v0l.009.11h0q.119,1.43.181,2.875h0l0,.111v.03h0l0,.084h0v.056h0l0,.081v.036c0,.035,0,.071,0,.107v.035l0,.077v.061h0l0,.079v.039l0,.073v.07l0,.07v1.293s0,.007,0,.012v.1s0,.006,0,.011v.039c0,.006,0,.013,0,.02v.014c0,.007,0,.014,0,.022v.011c0,.011,0,.022,0,.032V70.4s0,0,0,0v.033s0,.006,0,.01,0,.016,0,.024v.034s0,.007,0,.011,0,.022,0,.032v.033s0,.009,0,.012,0,.015,0,.022,0,.008,0,.013,0,.016,0,.024,0,.007,0,.009,0,.022,0,.033,0,0,0,.009,0,.016,0,.024v.012c0,.007,0,.015,0,.023s0,.008,0,.011v.033h0v.041c0,.006,0,.012,0,.018s0,.008,0,.013,0,.011,0,.017,0,.008,0,.013,0,.011,0,.017,0,.009,0,.014,0,.01,0,.015,0,.009,0,.014,0,.01,0,.015,0,.01,0,.014v.059c0,.005,0,.01,0,.016v.014c0,.005,0,.01,0,.016s0,.01,0,.014,0,.011,0,.016,0,.008,0,.013v.017s0,.008,0,.013v.118s0,.01,0,.015,0,.01,0,.015v.015s0,.01,0,.014v.074s0,.01,0,.015v.073q0,.008,0,.016V71.6c0,.007,0,.014,0,.021s0,.006,0,.008v.059s0,.006,0,.008v.36c0,.02,0,.04,0,.06v.765c0,.04,0,.08,0,.119v.306l0,.091h0v.335l0,.09v.335l0,.09v.334l0,.09v.334l-.005.089v.335l0,.027v0l0,.03v0l0,.025v.344l-.005.072v.322l-.008.1h0l0,.028h0l0,.025v0l0,.023v.006l0,.021v.008l0,.022v.006l0,.022v.006l0,.022v.006l0,.023v.005l0,.024v0c-.008.1-.017.2-.026.307h0c-.047.544-.1,1.089-.158,1.629l-4.971-.541a66.792,66.792,0,0,0-.162-15.776ZM132.647,93.36l4.7,1.714a70.434,70.434,0,0,1-4.362,9.638h0l-.047.087h0l-.015.027v0l-.063.114v0l-.015.028h0l-.047.085,0,0-.014.026v0l-.047.084,0,0-.013.023,0,0-.014.025,0,0-.031.055,0,.005-.013.023,0,.005-.013.024,0,0-.031.055,0,.006-.012.021,0,.008-.011.02,0,.007-.03.053,0,.008-.011.019-.005.01-.01.017-.005.009-.013.022,0,0-.015.026-.006.01-.009.016-.006.011-.009.017-.006.01-.011.019,0,.008-.014.025-.006.01-.01.017-.006.011-.009.015-.007.012-.009.016-.006.011-.014.025-.006.01-.009.015-.007.013-.008.013-.007.013-.008.014-.006.011-.014.024-.006.01-.01.017-.007.012-.008.014-.007.013-.008.014-.007.012-.008.014-.013.022-.007.013-.008.014-.007.011-.009.015-.006.011-.009.015-.006.01-.017.029-.006.01-.009.015-.006.01-.009.016-.005.009-.01.016,0,.007-.035.06,0,.005-.011.018,0,.007-.01.018,0,.007-.037.063v0l-.011.02,0,.006-.011.019,0,0-.051.088,0,0-.012.021,0,0-.052.089v0l-.012.021,0,0-.066.112v0q-1,1.685-2.088,3.308l-4.153-2.785A65.644,65.644,0,0,0,132.647,93.36Zm-17.424,26,3.376,3.688-.184.168h0l-.1.088h0l-.019.017h0l-.077.07h0l-.019.017h0l-.075.068,0,0-.016.015-.005,0-.016.015h0l-.039.035h0l-.016.015-.005,0-.016.014-.005,0-.016.014,0,0-.031.028-.006.005-.014.013-.007.007-.014.013-.008.007-.014.012-.007.006-.03.027,0,0-.014.013-.008.007-.014.012-.009.008-.013.011-.01.009-.022.019-.01.009-.012.011-.01.009-.012.011-.011.01-.011.01-.012.01-.019.016-.013.011-.011.009-.012.01-.012.01-.011.01-.011.01-.013.011-.013.011-.018.016-.01.008-.013.011-.011.009-.013.011-.01.009-.016.014-.007.006-.022.019-.009.008-.013.011-.011.01-.012.011-.01.009-.015.013-.008.007-.022.019-.007.006-.015.013-.009.008-.015.013-.008.007-.017.015-.006.005-.023.02-.007.006-.016.014-.009.008-.015.013-.008.007-.018.016,0,0-.023.02,0,0-.019.016-.008.007-.016.013-.008.007-.018.016,0,0-.023.02-.006.005-.016.014-.009.008-.015.013-.008.007-.017.015-.006.005-.023.02-.005,0-.018.015-.008.007-.016.014-.007.006-.019.016,0,0-.024.02,0,0-.02.017-.006.006-.017.015-.007.006-.019.016,0,0-.024.02,0,0-.021.018-.007.006-.017.015-.006.005-.02.017,0,0-.024.021h0l-.022.018-.007.006-.018.015-.006,0-.02.017,0,0-.048.041,0,0-.02.017,0,0-.021.018,0,0-.048.041-.006,0-.018.015-.006,0-.02.017,0,0-.048.04-.005,0-.019.016-.006,0-.02.017,0,0-.024.02,0,0-.022.018-.007.006-.018.015-.006,0-.02.017,0,0-.048.04,0,0-.02.016-.005,0-.02.017,0,0-.049.04,0,0-.02.016-.006,0-.02.016,0,0-.048.04,0,0-.02.016,0,0-.021.017,0,0-.049.04-.005,0-.019.016-.006,0-.02.016,0,0-.049.04,0,0-.02.016-.006,0-.019.016-.005,0-.048.039-.005,0-.019.015-.006,0-.019.015-.006,0-.048.039-.007.005-.017.014-.008.006-.016.013-.008.006-.02.017,0,0-.023.019-.008.007-.016.013-.008.006-.017.014-.007.006-.021.017,0,0-.024.019-.006,0-.018.015-.007.006-.017.014-.007.006-.021.017,0,0-.024.019-.005,0-.019.015-.007.006-.017.014-.008.006-.021.017,0,0-.024.019-.007.006-.017.014-.008.006-.016.013-.008.006-.018.015-.006,0-.023.018-.009.007-.015.012-.009.007-.015.012-.009.007-.017.014-.006,0-.023.019-.007.005-.018.014-.008.006-.016.012-.009.007-.016.013-.008.006-.023.018-.008.007-.016.012-.009.007-.015.012-.01.008-.016.013-.008.006-.023.018-.009.007-.015.012-.01.008-.014.011-.01.008-.015.011-.009.007-.022.017-.011.008-.013.01-.01.008-.014.011-.011.009-.013.011-.01.008-.02.016-.012.01-.013.01-.011.009-.012.01-.012.009-.012.01-.012.009-.015.012-.019.015-.012.009-.012.009-.012.009-.013.01-.012.009-.012.009-.013.01-.021.017-.011.009-.012.009-.012.009-.012.009-.011.009-.013.01-.007.006-.029.022-.008.006-.014.011-.01.008-.014.011-.009.007-.015.011-.006,0-.03.023-.008.006-.015.011-.008.006-.015.012-.007.006-.016.012h0l-.037.029-.005,0L113.9,127l-.008.006-.015.012-.008.006-.015.012,0,0-.036.028,0,0-.018.014,0,0-.017.013-.005,0-.077.059-.006,0-.017.013-.005,0-.018.014h0l-.06.046,0,0-.018.014,0,0-.08.061,0,0-.019.014,0,0-.082.062,0,0-.019.014,0,0-.082.061h0l-.02.015h0l-.082.062,0,0-.02.015h0a70.889,70.889,0,0,1-8.314,5.348l-2.4-4.384A66.068,66.068,0,0,0,115.224,119.361ZM87.785,134.4l1.286,4.832q-2.047.545-4.14.969h0l-.032.006h0l-.128.026h0l-.029.006h0l-.029.006h0l-.095.019h0l-.027.005h-.005l-.027.005h0l-.094.018h-.005l-.026.005h-.007l-.024,0H84.38l-.026,0h-.005l-.062.012h-.006l-.025,0-.008,0-.023,0h-.008l-.025,0h-.006l-.062.012h-.006l-.024,0-.009,0-.021,0-.01,0-.021,0-.009,0-.026,0h0l-.03.006-.01,0-.02,0-.011,0-.019,0-.011,0-.02,0-.011,0-.022,0-.008,0-.03.006H83.8l-.024,0-.01,0-.02,0-.012,0-.018,0-.012,0-.019,0-.011,0-.027.005-.012,0-.02,0-.013,0-.017,0-.031.006-.03.005-.014,0-.019,0-.02,0-.019,0-.03.005-.03.005-.031.006-.013,0-.018,0-.022,0-.018,0-.03.005-.03.005-.017,0-.011,0-.018,0-.011,0-.064.011-.011,0-.019,0-.011,0-.019,0-.01,0-.019,0-.01,0-.071.012h0l-.02,0-.01,0-.019,0-.01,0-.02,0-.009,0-.074.013h0l-.022,0h-.008l-.021,0h-.008l-.021,0H82.68l-.1.017h-.007l-.022,0h-.007l-.022,0h-.007l-.022,0h0l-.077.013h0l-.023,0h-.006l-.022,0h-.006l-.023,0h0l-.081.013h0l-.024,0h0l-.023,0H82.19l-.024,0h0l-.107.017h0l-.024,0h0l-.025,0h0l-.135.021h0l-.026,0h0l-.135.021h0l-.025,0h0l-.135.021h0l-.026,0h0l-.136.021h0l-.027,0h0l-.165.024h0q-1.885.277-3.8.453h0l-.167.015-.029,0h0l-.139.012-.029,0h0l-.139.012-.028,0h0l-.137.011-.029,0-.029,0h0l-.108.009-.028,0-.029,0h0l-.105.008-.029,0-.03,0-.03,0h0l-.079.006-.027,0-.029,0-.031,0h0l-.076.006-.027,0-.03,0-.03,0h-.007l-.074.005-.026,0h-.03l-.031,0-.03,0-.048,0-.029,0-.03,0h-.03l-.03,0H75.57l-.044,0h-.051l-.031,0h-.03l-.031,0-.041,0h-.033l-.032,0-.031,0-.031,0-.041,0-.033,0-.032,0-.031,0-.031,0-.031,0h0l-.039,0-.032,0-.031,0-.031,0-.03,0h0l-.039,0h-.025l-.032,0h-.01l-.032,0-.031,0h0l-.033,0h0l-.036,0h-.033l-.032,0-.1,0-.032,0-.033,0-.038,0h0l-.067,0h0l-.035,0h-.065l-.1,0h-.037l-.133.006h-.035q-.794.034-1.591.05l-.1-5A65.957,65.957,0,0,0,87.785,134.4Zm-46.158-4.6a65.39,65.39,0,0,0,14.855,5.243L55.4,139.931q-1.627-.361-3.225-.8h0l-.031-.008h0l-.1-.026h0l-.029-.008h0l-.03-.008h0l-.064-.018h0l-.028-.008H51.88l-.028-.008h0l-.063-.018h0l-.028-.008-.007,0-.025-.007-.006,0L51.69,139h0l-.062-.017-.007,0-.023-.007-.008,0-.023-.007-.007,0-.061-.017-.007,0-.024-.007-.008,0-.023-.006-.008,0-.025-.007H51.4l-.03-.009-.005,0-.024-.007-.01,0-.019-.006-.011,0-.019-.005-.011,0-.023-.007-.01,0-.025-.007-.011,0-.018-.005-.013,0-.017,0-.013,0-.017-.005-.012,0-.028-.008-.012,0-.017,0-.014,0-.016,0-.013,0-.016,0-.014,0-.019-.005-.019-.005-.019-.005-.014,0-.016,0-.014,0-.015,0-.015,0-.014,0-.016,0-.026-.008-.015,0-.014,0-.016,0-.012,0-.017-.005-.011,0-.017-.005-.012,0-.032-.01-.011,0-.017-.005-.012,0-.017,0-.013,0-.016,0-.012,0-.043-.013h0l-.018-.006-.01,0-.019-.006-.009,0-.019-.006-.009,0-.069-.021h0l-.021-.006-.008,0-.02-.006-.007,0-.021-.006h0l-.072-.022h0l-.021-.006-.008,0-.021-.006h0l-.073-.022h0l-.023-.007h0l-.023-.007h0l-.1-.03h0l-.022-.007-.006,0-.022-.007h0l-.073-.023h0l-.022-.007-.007,0-.022-.007h0l-.1-.031h0l-.024-.008h0l-.128-.04h0a70.312,70.312,0,0,1-8.774-3.432h0l-.145-.068h0l-.12-.057h0l-.023-.011h0l-.1-.045h0l-.023-.011h0l-.118-.056,0,0-.021-.01,0,0-.092-.044,0,0-.02-.01-.006,0-.021-.01h0l-.069-.033h0l-.022-.011,0,0-.022-.011h0l-.092-.045,0,0-.02-.01-.006,0-.02-.01,0,0-.066-.033h0l-.02-.01-.006,0-.02-.01,0,0-.09-.044,0,0-.02-.01-.005,0-.021-.01h0l-.051-.025Zm-23.95-20.163a66.272,66.272,0,0,0,10.766,11.521l-3.221,3.824-.065-.055,0,0-.019-.016,0,0-.079-.067h0l-.02-.017h0l-.08-.068h0l-.02-.017h0q-2.174-1.851-4.193-3.87h0l-.075-.075h0l-.187-.188h0l-.093-.094h0l-.018-.018h0l-.072-.074,0,0-.018-.018h0l-.073-.074,0,0-.017-.018,0,0-.071-.073,0,0-.016-.017,0,0-.07-.072,0,0L20,120.119l0,0-.068-.07-.005-.005-.015-.015,0,0-.052-.054h0l-.016-.016,0,0-.015-.016,0,0-.067-.07-.006-.006-.014-.015-.006-.006-.014-.015,0,0-.029-.03,0,0-.013-.014-.007-.007-.013-.013-.007-.007-.014-.015,0,0-.029-.031-.007-.007-.012-.012-.01-.01-.011-.012-.009-.009-.012-.012-.008-.009-.022-.023-.008-.009-.012-.013-.008-.008-.013-.013-.008-.008-.013-.014-.006-.006-.023-.025-.009-.009-.012-.012-.009-.009-.012-.012-.009-.009-.012-.013-.008-.008L19.3,119.4l-.007-.008-.012-.012-.009-.01-.011-.012-.009-.01-.012-.012-.009-.01-.018-.019-.011-.012-.01-.011-.01-.011-.011-.012-.009-.01-.011-.012-.011-.012-.015-.016-.013-.013-.01-.01-.011-.012-.01-.011-.011-.011-.01-.011-.013-.014-.012-.013-.014-.015-.009-.01L19,119.074l-.008-.009-.013-.014-.008-.008-.018-.02,0,0L18.931,119l-.008-.008-.013-.014-.008-.009-.013-.014-.008-.009-.018-.02,0,0-.018-.02-.007-.007-.014-.016-.007-.008-.014-.015-.007-.008-.02-.022h0l-.02-.022-.006-.007-.014-.015-.007-.008-.014-.015-.007-.007-.041-.045-.005-.006-.016-.017-.006-.006-.016-.018,0,0-.042-.046,0,0-.018-.019,0,0-.018-.02,0,0-.043-.047,0,0-.019-.021,0,0-.019-.021,0,0-.044-.048h0l-.02-.022,0,0-.019-.021,0,0-.043-.048,0,0-.02-.022,0,0-.02-.023h0l-.044-.049h0l-.02-.023,0,0-.021-.023h0l-.155-.172h0Q15.7,115.4,13.643,112.6ZM5.742,80.725a65.411,65.411,0,0,0,4.212,15.18L5.333,97.814q-.153-.371-.3-.743h0l-.049-.124v0l-.009-.023v0l-.039-.1h0L4.922,96.8l0-.005-.008-.02,0-.007-.035-.09,0-.009-.007-.018,0-.009-.007-.018,0-.008-.024-.062,0-.009-.007-.017,0-.011L4.8,96.5l0-.011-.006-.017,0-.01-.014-.035,0-.007L4.767,96.4l0-.012-.006-.015-.005-.013-.006-.015,0-.013-.006-.015L4.73,96.3l-.009-.022-.007-.017,0-.013L4.7,96.236,4.7,96.222l-.006-.015,0-.013-.007-.018,0-.01-.01-.027,0-.01-.007-.018,0-.012-.006-.016,0-.011-.007-.019,0-.01-.008-.022,0-.006-.011-.028,0-.007L4.6,95.957l0-.009-.007-.02,0-.01L4.575,95.9l0-.008-.022-.057,0-.007L4.539,95.8l0-.008-.008-.022,0-.006-.01-.025,0,0-.022-.059,0-.005-.009-.025,0-.005-.009-.025,0,0-.033-.089,0,0-.01-.026,0,0-.045-.12v0A70.283,70.283,0,0,1,1.153,83.6v0l-.024-.131h0l-.006-.032h0L1.1,83.3v0l-.005-.029v0l-.017-.1v0l0-.028v-.006l0-.027V83.1l-.011-.064v0l0-.027V83l0-.024v-.008l0-.025v-.006l-.011-.063v-.008l0-.023,0-.01,0-.021,0-.011,0-.022,0-.009L1,82.739V82.73l0-.022,0-.012,0-.019,0-.013,0-.017,0-.014,0-.018,0-.019,0-.022,0-.015,0-.014,0-.016,0-.014,0-.016,0-.015,0-.015,0-.02,0-.023,0-.016,0-.016,0-.014,0-.016,0-.013,0-.018,0-.011-.011-.066,0-.01,0-.019,0-.01,0-.02v-.009l0-.021v0l-.012-.075v-.006l0-.022v-.007l0-.022v-.005l-.016-.1v0l0-.025v0l-.021-.135h0Q.819,81.613.8,81.472Zm-1.963-32.8L8.51,49.54A65.576,65.576,0,0,0,5.256,64.957L.275,64.518q.229-2.6.644-5.153h0l.022-.136h0l0-.027h0l.023-.136h0l0-.026v0L1,58.9v0l0-.025v0l.018-.106v0l0-.024v0l0-.023V58.7l.018-.1v0l0-.024V58.57l0-.023v-.005l.018-.1v0l0-.023v-.006l0-.022v-.007l0-.022h0L1.1,58.3h0l0-.02,0-.01,0-.02,0-.01,0-.02,0-.009.017-.1,0-.009,0-.019,0-.01,0-.019,0-.011,0-.019h0l.009-.049v-.005l0-.02,0-.01,0-.019,0-.011,0-.018,0-.011.012-.064,0-.011,0-.018,0-.013,0-.017,0-.012,0-.018,0-.012.012-.062,0-.012,0-.017,0-.013,0-.018,0-.012,0-.017,0-.012.012-.062,0-.012,0-.017,0-.014,0-.016,0-.015,0-.015,0-.017,0-.018,0-.023,0-.016,0-.015,0-.015,0-.015,0-.016,0-.014,0-.015,0-.015.005-.027,0-.016,0-.016,0-.014,0-.016,0-.014,0-.016,0-.013,0-.017,0-.015,0-.023,0-.019,0-.015,0-.016,0-.014,0-.016,0-.014,0-.016,0-.013,0-.02,0-.017,0-.022,0-.013,0-.016,0-.015,0-.016,0-.013,0-.018,0-.012.005-.026,0-.01,0-.023,0-.012,0-.018,0-.013,0-.018,0-.013,0-.019,0-.011.005-.026,0-.012,0-.022,0-.011,0-.019,0-.012,0-.019,0-.012,0-.02,0-.01.006-.029,0-.009,0-.021,0-.013,0-.017,0-.013,0-.017,0-.014,0-.018,0-.012.006-.028,0-.012,0-.019,0-.013,0-.017,0-.014,0-.017,0-.013,0-.019,0-.011.006-.028,0-.013,0-.017,0-.014,0-.015,0-.014,0-.017,0-.014,0-.018,0-.012.006-.028,0-.013,0-.018,0-.013,0-.017,0-.014,0-.017,0-.013,0-.019,0-.011.006-.029,0-.011,0-.02,0-.012,0-.018,0-.012,0-.019,0-.012,0-.022,0-.007.006-.029,0-.012,0-.018,0-.014,0-.015,0-.015,0-.015,0-.014,0-.021,0-.013.005-.024,0-.013,0-.017,0-.014,0-.017,0-.013,0-.018,0-.013L1.7,55.3l0-.013,0-.021,0-.013,0-.017,0-.013,0-.018,0-.013,0-.019,0-.011.006-.027,0-.013,0-.018,0-.015,0-.015,0-.015,0-.015,0-.014,0-.015,0-.015,0-.02,0-.02,0-.016,0-.014,0-.016,0-.014,0-.015,0-.014,0-.018,0-.011.007-.029,0-.009,0-.02,0-.013,0-.017,0-.014,0-.015,0-.014,0-.017,0-.013.007-.028,0-.013,0-.017,0-.015,0-.015,0-.014,0-.016,0-.014,0-.016,0-.013.006-.027,0-.017,0-.012,0-.016,0-.014,0-.016,0-.015,0-.014,0-.015.006-.027,0-.014,0-.016,0-.013,0-.016,0-.014,0-.016,0-.012,0-.017,0-.012.008-.031,0-.013,0-.017,0-.012,0-.017,0-.012,0-.017,0-.012,0-.017,0-.012L2,54.024l0-.011,0-.017,0-.012,0-.017,0-.013,0-.016,0-.012,0-.017,0-.012.008-.032,0-.012,0-.018,0-.012,0-.017,0-.012,0-.017,0-.012,0-.017,0-.009L2.08,53.7l0-.008,0-.018,0-.011,0-.017,0-.013,0-.017,0-.011,0-.018v0l.01-.041,0-.012,0-.017,0-.012,0-.018,0-.01,0-.019,0-.008.017-.068,0-.007,0-.019,0-.009,0-.019,0-.011,0-.018,0-.008.017-.067,0-.008.005-.02,0-.009,0-.019,0-.01,0-.019,0-.009.017-.066,0-.008.005-.02,0-.009.005-.019,0-.009.005-.02v0l.019-.072,0-.006.005-.021,0-.007.005-.021,0-.007.026-.1,0-.006.006-.021,0-.007.006-.021,0-.006.026-.1v0l.006-.023v0l.006-.023v0l.027-.1v0l.006-.024v0l.006-.024v0l.027-.1v0l.006-.024v0l.035-.13h0L2.5,52.08h0c.041-.149.082-.3.124-.446h0q.527-1.876,1.152-3.707Zm18.16-28.359,3.451,3.618A66.2,66.2,0,0,0,15.358,35.35l-4.21-2.7q.611-.953,1.251-1.886h0l.074-.108,0,0,.056-.081h0l.017-.025,0,0,.055-.08h0l.017-.024,0,0,.016-.023,0,0,.037-.053,0,0,.016-.022,0-.005.015-.022,0,0,.037-.052,0,0,.014-.021.005-.007.014-.02,0-.005.036-.051,0-.005.014-.02.005-.007.014-.019,0-.006.036-.05.006-.008.012-.016.007-.01.012-.017.006-.008.017-.024v0l.017-.024.005-.007.012-.017.007-.009.012-.017.005-.008.018-.025h0l.018-.025.005-.008.012-.016.007-.01.011-.015.007-.01.013-.018.008-.011.013-.018.008-.011.01-.014.008-.011.01-.014.007-.01.012-.016.012-.017.01-.014.009-.013.008-.011.01-.014.008-.011.01-.013.008-.011.018-.024.008-.011.009-.013.008-.011.01-.014.007-.01.01-.014.006-.009.021-.029.006-.008.011-.015.006-.008.011-.016.006-.008.012-.016,0-.005.025-.035,0,0,.012-.016.006-.008.012-.016,0-.007.012-.017,0,0,.043-.059,0,0,.013-.017,0-.006.058-.08,0,0,.014-.019,0,0,.061-.083h0l.015-.02,0,0,.061-.083,0,0,.014-.019,0,0,.061-.083h0l.015-.021h0l.062-.083,0,0,.015-.02h0l.079-.106h0a71.183,71.183,0,0,1,7.9-8.917Zm29.186-16.8,1.387,4.8a65.479,65.479,0,0,0-14.5,6.164l-2.5-4.333q2.246-1.294,4.59-2.424h0L40.5,6.8h0l.242-.114h0l.145-.068h0l.389-.18h0l.243-.111h0l.121-.055h0l.023-.01h0l.095-.043h0l.023-.01h0l.12-.054h0l.023-.01h0l.1-.044h0l.024-.01h0l.121-.054h0l.122-.054h0l.122-.054h0l.023-.01h0L42.7,5.8h0l.147-.063h0l.1-.042h0l.025-.01h0l.123-.053h0l.122-.052h0l.022-.009,0,0,.094-.04h0l.023-.01h0l.122-.051h0l.122-.051h0l.022-.009h0l.1-.04h0l.023-.01h0l.1-.04h0L43.89,5.3l0,0,.122-.05h0l.023-.009h0l.1-.039h0l.023-.009h0l.1-.04h0l.023-.009h0l.1-.039h0l.021-.009.006,0,.021-.008.005,0,.094-.037,0,0,.022-.009,0,0,.022-.009h0l.072-.029h0l.021-.009.006,0,.021-.008h0l.071-.028h0l.021-.008.006,0,.02-.008.008,0,.091-.036.007,0,.02-.008.006,0,.021-.008h0l.073-.028h0l.022-.008.005,0,.022-.008h0l.072-.028h0l.021-.008.006,0,.02-.008.006,0,.092-.036.007,0,.02-.008.006,0L45.4,4.7h0l.048-.018h0l.021-.008.006,0,.02-.008.007,0,.021-.008h0l.069-.026.006,0,.019-.007.009,0,.018-.007.009,0,.067-.025h0l.02-.008.008,0,.019-.007.007,0,.021-.008h0l.047-.018h0l.02-.007.008,0L45.9,4.5l.008,0,.02-.007,0,0L46,4.467l.007,0,.02-.007.007,0,.02-.007.007,0,.066-.025.006,0,.019-.007.009,0,.018-.007.009,0,.018-.007.009,0,.035-.013.009,0,.017-.006.01,0,.017-.006.011,0,.017-.006.011,0,.04-.015h0l.017-.006.012,0,.016-.006.012,0,.015-.006.014-.005.015-.005.011,0,.032-.012.01,0,.017-.006.012,0,.016-.006.011,0,.017-.006.009,0,.033-.012.011,0,.017-.006.011,0,.017-.006.011,0,.017-.006.011,0,.06-.022.01,0,.017-.006.012,0,.016-.006.013,0,.016-.006.006,0,.037-.013.01,0,.017-.006.012,0,.017-.006.01,0,.018-.006.006,0,.036-.013.012,0,.016-.006.012,0,.016-.006.012,0,.016-.006.011,0,.031-.011.012,0,.015-.005.014,0,.015-.005.015-.005.013,0L47.288,4l.014,0,.026-.009.013,0,.016-.006.014,0,.015-.005.014,0,.014-.005.014-.005.02-.007.016-.006.019-.007.013,0,.016-.006.013,0,.015-.005.014,0,.018-.006.01,0,.027-.01.012,0,.018-.006.012,0,.018-.006.011,0,.02-.007.009,0,.028-.01.009,0,.02-.007.011,0,.018-.006.013,0,.018-.006.011,0,.027-.009.008,0,.023-.008.01,0,.018-.006.012,0,.019-.006.01,0,.025-.009h0l.029-.01.008,0,.021-.007.011,0,.019-.007.009,0,.025-.008,0,0,.03-.01h0l.025-.008.009,0,.021-.007.009,0,.023-.008.006,0,.03-.01h0l.028-.009.008,0,.022-.007.009,0,.021-.007.009,0,.059-.02.007,0,.023-.008.008,0,.023-.008.006,0,.028-.009h0l.031-.01h0l.026-.008.007,0,.024-.008.007,0,.026-.009h0l.061-.02h0l.025-.008.006,0,.026-.008h0l.061-.02h0l.027-.009.005,0,.027-.009h0l.092-.03,0,0,.026-.008h0L49.07,3.4h0l.062-.02h0l.028-.009h0l.029-.009h0l.094-.03h0l.03-.01h0l.127-.04h0l.127-.04h0Q50.35,2.995,51.125,2.771ZM70.806,0V5c-.91,0-1.83.019-2.737.056l-.2-5C68.5.034,69.137.016,69.777.007h1.03Z" transform="translate(197.219 115.832) rotate(145)" fill="#fafafa"/>
</svg>
