<svg xmlns="http://www.w3.org/2000/svg" width="480.918" height="5" viewBox="0 0 480.918 5">
  <g id="line-dashed" transform="translate(-1330.806 -449.698)">
    <path id="Path_52689" data-name="Path 52689" d="M5887.1,15902.029h-8v-5h8Zm-16,0h-8v-5h8Zm-16,0h-8v-5h8Zm-16,0h-8v-5h8Zm-16,0h-8v-5h8Zm-16,0h-8v-5h8Zm-16,0h-8v-5h8Zm-16,0h-8v-5h8Zm-16,0h-8v-5h8Zm-16,0h-8v-5h8Zm-16,0h-8v-5h8Zm-16,0h-8v-5h8Zm-16,0h-8v-5h8Zm-16,0h-8v-5h8Zm-16,0h-8v-5h8Zm-16,0h-8v-5h8Zm-16,0h-8v-5h8Zm-16,0h-8v-5h8Zm-16,0h-8v-5h8Zm-16,0h-8v-5h8Zm-16,0h-8v-5h8Zm-16,0h-8v-5h8Zm-16,0h-8v-5h8Zm-16,0h-8v-5h8Zm-16,0h-8v-5h8Zm-16,0h-8v-5h8Z" transform="translate(-4148.298 -15447.331)" fill="#fafafa"/>
    <path id="Path_52697" data-name="Path 52697" d="M5960.022,15902.029h-.918v-5h.918Zm-8.918,0h-8v-5h8Zm-16,0h-8v-5h8Zm-16,0h-8v-5h8Zm-16,0h-8v-5h8Zm-16,0h-8v-5h8Zm-16,0h-8v-5h8Zm-16,0h-8v-5h8Zm-16,0h-8v-5h8Zm-16,0h-8v-5h8Zm-16,0h-8v-5h8Zm-16,0h-8v-5h8Zm-16,0h-8v-5h8Zm-16,0h-8v-5h8Zm-16,0h-8v-5h8Zm-16,0h-8v-5h8Zm-16,0h-8v-5h8Zm-16,0h-8v-5h8Zm-16,0h-8v-5h8Zm-16,0h-8v-5h8Zm-16,0h-8v-5h8Zm-16,0h-8v-5h8Zm-16,0h-8v-5h8Zm-16,0h-8v-5h8Zm-16,0h-8v-5h8Zm-16,0h-8v-5h8Zm-16,0h-8v-5h8Zm-16,0h-8v-5h8Zm-16,0h-8v-5h8Zm-16,0h-8v-5h8Zm-16,0h-8v-5h8Z" transform="translate(-4148.298 -15447.331)" fill="#fafafa" opacity="0.44"/>
  </g>
</svg>
