<svg xmlns="http://www.w3.org/2000/svg" width="1916.541" height="184.508" viewBox="0 0 1916.541 184.508">
  <path id="services-bg" d="M125,3.107H108.506q-26.529,0-46.366-4.541T31.548-12.428A54.144,54.144,0,0,1,14.46-28.083q-6.334-9.2-8.126-16.61A66.911,66.911,0,0,1,4.541-60.467V-63.1H62.618q1.912,28.2,52.819,28.2h3.346a204.055,204.055,0,0,0,27.724-1.553Q157.5-38,162.52-40.869t6.692-5.856a14.2,14.2,0,0,0,1.673-7.05q0-5.736-2.868-9.082t-13.384-5.856Q144.117-71.222,124.28-71.7l-30.592-.717q-86.757-2.39-86.757-52.1v-2.151a55.962,55.962,0,0,1,2.151-15.894,38.981,38.981,0,0,1,8.6-14.579,52.758,52.758,0,0,1,16.849-12.309q10.4-5.019,28.083-8.245a231.38,231.38,0,0,1,41.108-3.226h16.491a245.733,245.733,0,0,1,43.02,3.346q18.642,3.346,29.756,8.6a58.143,58.143,0,0,1,18.164,12.906q7.05,7.648,9.679,15.177a48.592,48.592,0,0,1,2.629,16.132v2.39H165.627a22.81,22.81,0,0,0-1.314-4.9,20.56,20.56,0,0,0-3.944-5.377,23.557,23.557,0,0,0-8.126-5.5q-5.019-2.151-14.937-3.824a140.177,140.177,0,0,0-23.064-1.673h-3.824q-20.076,0-30.831,2.509t-13.025,5.258a11.474,11.474,0,0,0-2.271,7.529,10.841,10.841,0,0,0,2.509,7.409q2.51,2.868,11.95,5.258t26.648,2.629l29.875.478q49.712.956,71.819,13.5T229.2-59.75V-56.4a65.884,65.884,0,0,1-2.151,17.567q-2.151,7.767-8.843,15.894A53.137,53.137,0,0,1,200.4-9.321q-11.114,5.5-30.353,8.963T125,3.107Zm277.718-105.4h-.239q-36.328,0-42.781,21.749h86.04Q440-102.292,402.715-102.292ZM498.793-45.41v.239A42.868,42.868,0,0,1,497.12-33.34q-1.673,5.856-7.409,12.786a52.5,52.5,0,0,1-14.818,12.07Q465.811-3.346,449.2.12T410.6,3.585H396.979q-24.856,0-43.02-5.378t-28.2-14.937a61.121,61.121,0,0,1-14.7-20.793A63.617,63.617,0,0,1,306.4-62.14V-67.4a65.7,65.7,0,0,1,4.3-24.139,58.262,58.262,0,0,1,13.982-20.435q9.68-9.44,27.724-14.818t43.139-5.377h14.579q89.386,0,89.386,69.31v8.843H358.739q5.258,25.095,45.41,25.1h.239a98.841,98.841,0,0,0,17.805-1.434,50.885,50.885,0,0,0,12.07-3.466,28.335,28.335,0,0,0,7.05-4.541,21.63,21.63,0,0,0,3.7-4.063,8.381,8.381,0,0,0,1.2-2.988ZM634.545-66.442V0h-53.3V-128.582h52.819v22.705a66.47,66.47,0,0,1,8.365-10.038q5.019-5.019,17.089-10.277a66.017,66.017,0,0,1,26.648-5.258H688.8q26.768,0,39.555,15.535T741.139-74.09v7.409H689.754q0-13.623-6.573-22.227t-20.674-8.6h-.239q-12.906,0-20.315,8.963T634.545-66.442ZM871.155,0,805.669-128.582h57.36L904.376-40.63l40.152-87.952h53.536L935.207,0Zm254.3-177.816v36.806h-53.3v-36.806Zm0,49.234V0h-53.3V-128.582ZM1310.2,3.585h-13.145q-21.032,0-37.4-4.183t-25.932-10.755a60.181,60.181,0,0,1-15.774-15.655,55.442,55.442,0,0,1-8.365-17.686,73.64,73.64,0,0,1-2.151-17.925V-67.4a72.2,72.2,0,0,1,2.151-17.806,54.321,54.321,0,0,1,8.245-17.327,56.309,56.309,0,0,1,15.774-15.177q9.68-6.334,25.932-10.4t37.284-4.063h13.623q22.944,0,40.152,4.3t26.41,10.4a54.712,54.712,0,0,1,14.938,14.34q5.736,8.246,7.29,14.579A52.525,52.525,0,0,1,1400.779-76v.717h-54.731q-5.5-23.183-42.542-23.183h-.717q-21.51,0-31.19,8.963t-9.679,22.825v1.673q0,14.579,9.8,24.5t31.07,9.919h.717q36.806,0,42.542-23.661h54.731v.478a58.806,58.806,0,0,1-1.434,13.025q-1.434,6.334-6.931,14.818a50.285,50.285,0,0,1-14.7,14.579q-9.2,6.095-26.649,10.516T1310.2,3.585Zm262.183-105.877h-.239q-36.328,0-42.781,21.749h86.04Q1609.665-102.292,1572.381-102.292Zm96.078,56.882v.239a42.867,42.867,0,0,1-1.673,11.831q-1.673,5.856-7.409,12.786a52.5,52.5,0,0,1-14.818,12.07q-9.082,5.139-25.693,8.6t-38.6,3.466h-13.623q-24.856,0-43.02-5.378t-28.2-14.937a61.121,61.121,0,0,1-14.7-20.793,63.618,63.618,0,0,1-4.66-24.617V-67.4a65.695,65.695,0,0,1,4.3-24.139,58.262,58.262,0,0,1,13.981-20.435q9.68-9.44,27.724-14.818t43.14-5.377h14.579q89.386,0,89.386,69.31v8.843H1528.4q5.258,25.095,45.41,25.1h.239a98.84,98.84,0,0,0,17.805-1.434,50.887,50.887,0,0,0,12.07-3.466,28.333,28.333,0,0,0,7.05-4.541,21.629,21.629,0,0,0,3.7-4.063,8.38,8.38,0,0,0,1.195-2.988Zm167.778,49h-9.8q-82.694,0-82.694-45.649V-43.5h54.97q0,17.447,32.982,17.447h.478q13.862,0,21.63-1.912t9.679-4.3a9.262,9.262,0,0,0,1.912-5.975v-.478q0-5.5-5.377-8.126t-22.825-3.107l-22.944-.478q-20.076-.478-34.3-4.063t-21.51-9.56q-7.289-5.975-10.4-12.428a32.075,32.075,0,0,1-3.107-14.1v-1.434a42.191,42.191,0,0,1,1.553-11.95,27.679,27.679,0,0,1,6.692-10.755,39.019,39.019,0,0,1,13.742-9.082q8.6-3.585,23.661-5.975a230.44,230.44,0,0,1,35.611-2.39h9.56q80.543,0,80.543,40.391V-90.1h-54.253a15.183,15.183,0,0,0-1.434-4.183,14.436,14.436,0,0,0-3.824-4.063q-2.868-2.271-9.679-3.585a90.886,90.886,0,0,0-16.849-1.314h-.239q-18.164,0-24.378,2.151t-6.214,7.409v.478q0,4.78,5.736,7.29t21.271,2.988l22.944.478q28.919.478,44.932,5.5t21.39,13.026q5.378,8.007,5.378,21.868v1.434a39.416,39.416,0,0,1-3.465,17.088q-3.466,7.29-12.189,13.743T1879.257.12Q1861.81,3.585,1836.237,3.585Z" transform="translate(-4.541 180.923)" opacity="0.07"/>
</svg>
